<?xml version="1.0" standalone="no"?>
<!DOCTYPE svg PUBLIC "-//W3C//DTD SVG 20010904//EN"
 "http://www.w3.org/TR/2001/REC-SVG-20010904/DTD/svg10.dtd">
<svg version="1.0" xmlns="http://www.w3.org/2000/svg"
 width="700.000000pt" height="700.000000pt" viewBox="0 0 700.000000 700.000000"
 preserveAspectRatio="xMidYMid meet">
<metadata>
Created by potrace 1.14, written by Peter Selinger 2001-2017
</metadata>
<g transform="translate(0.000000,700.000000) scale(0.100000,-0.100000)"
fill="#000000" stroke="none">
<path d="M2770 6609 c-69 -4 -134 -9 -145 -12 -95 -26 -171 -72 -234 -144 -57
-65 -56 -64 -82 -119 -31 -68 -44 -158 -44 -304 l0 -125 203 -3 202 -2 0 130
c0 126 1 132 25 156 l24 24 781 0 781 0 25 -25 c23 -23 24 -30 24 -155 l0
-130 203 2 202 3 -1 151 c-2 204 -30 294 -122 397 -54 59 -127 107 -200 132
-75 26 5 24 -987 28 -291 1 -586 -1 -655 -4z"/>
<path d="M2576 5663 c-1 -2 -490 -3 -1087 -3 -1033 0 -1087 -1 -1146 -19 -162
-49 -295 -190 -332 -351 -6 -28 -10 -286 -11 -681 0 -620 0 -638 21 -705 63
-207 215 -415 400 -547 71 -50 226 -131 274 -143 17 -4 35 -10 40 -14 14 -10
143 -39 213 -47 31 -4 500 -7 1042 -7 l985 -1 1 200 c1 263 7 290 93 372 78
75 94 78 436 78 l300 0 59 -30 c33 -16 73 -47 92 -71 60 -73 66 -105 67 -334
1 -113 5 -207 9 -210 10 -8 1987 -4 2038 4 420 67 740 318 891 696 l34 85 0
670 c0 636 -1 673 -19 729 -51 154 -195 284 -349 315 -35 8 -692 12 -2050 13
-1099 2 -2000 2 -2001 1z"/>
<path d="M3228 3543 c-20 -25 -22 -998 -2 -1030 14 -23 16 -23 273 -23 228 0
260 2 272 17 21 24 23 1010 2 1034 -12 15 -46 17 -273 17 -224 1 -260 -1 -272
-15z"/>
<path d="M0 2114 c0 -1435 -3 -1350 56 -1471 59 -120 199 -222 339 -248 38 -7
6171 -7 6205 0 71 14 87 20 144 48 121 62 221 197 245 331 8 41 11 471 11
1360 -1 1101 -3 1298 -14 1283 -8 -10 -34 -40 -59 -67 -226 -245 -545 -405
-872 -436 -44 -4 -516 -8 -1050 -9 -533 -1 -972 -3 -975 -4 -3 0 -5 -92 -6
-203 -1 -230 -10 -276 -70 -346 -19 -22 -60 -53 -92 -69 l-57 -28 -300 0
c-346 0 -362 3 -444 84 -74 73 -84 114 -87 356 -1 110 -2 202 -3 205 0 3 -430
6 -953 6 -1072 1 -1055 1 -1187 26 -311 58 -589 218 -794 458 l-37 44 0 -1320z"/>
</g>
</svg>
